<?xml version="1.0" encoding="UTF-8"?>
<svg width="512px" height="312px" viewBox="0 0 512 312" version="1.1" xmlns="http://www.w3.org/2000/svg" xmlns:xlink="http://www.w3.org/1999/xlink">
    <!-- Generator: Sketch 58 (84663) - https://sketch.com -->
    <title>Friulivery</title>
    <desc>Created with Sketch.</desc>
    <g id="Page-1" stroke="none" stroke-width="1" fill="none" fill-rule="evenodd">
        <g id="Friulivery">
            <g id="fast-delivery" stroke-width="1" fill-rule="evenodd">
                <path d="M482.935,138.684 L379.039,138.684 L357.666,259.896 L488.93,259.896 C493.131,259.896 496.727,256.88 497.456,252.741 L511.46,173.316 C514.833,154.189 502.062,138.684 482.935,138.684 Z" id="Path" fill="#C7CFE2" fill-rule="nonzero"></path>
                <path d="M375.986,156 L479.882,156 C489.446,156 495.831,163.752 494.145,173.316 L478.879,259.896 L357.667,259.896 L375.986,156 Z" id="Path" fill="#AFB9D2" fill-rule="nonzero"></path>
                <path d="M478.189,259.896 C479.154,230.537 457.955,207.948 427.431,207.948 C396.907,207.948 367.742,230.537 358.354,259.896 L478.189,259.896 Z" id="Path" fill="#959CB5" fill-rule="nonzero"></path>
                <path d="M466.622,34.788 L397.358,34.788 L391.252,69.42 L482.858,69.42 C484.959,69.42 486.756,67.911 487.121,65.843 L488.017,60.762 C490.546,46.417 480.967,34.788 466.622,34.788 Z" id="Path" fill="#C7CFE2" fill-rule="nonzero"></path>
                <path d="M460.036,268.554 C455.821,292.462 433.021,311.844 409.113,311.844 C385.205,311.844 369.241,292.462 373.456,268.554 C377.671,244.646 400.471,225.264 424.379,225.264 C448.287,225.264 464.251,244.645 460.036,268.554 Z" id="Path" fill="#5B5D6E" fill-rule="nonzero"></path>
                <polygon id="Path" fill="#B4E6FF" fill-rule="nonzero" points="482.935 138.684 477.832 69.42 391.252 69.42 379.039 138.684"></polygon>
                <path d="M442.72,268.554 C440.191,282.899 426.511,294.528 412.166,294.528 C397.821,294.528 388.243,282.899 390.772,268.554 C393.301,254.209 406.981,242.58 421.326,242.58 C435.67,242.58 445.249,254.209 442.72,268.554 Z" id="Path" fill="#C7CFE2" fill-rule="nonzero"></path>
                <path d="M425.404,268.554 C424.561,273.335 420.001,277.212 415.219,277.212 C410.436,277.212 407.245,273.335 408.088,268.554 C408.931,263.773 413.491,259.896 418.273,259.896 C423.054,259.896 426.247,263.773 425.404,268.554 Z" id="Path" fill="#7F8499" fill-rule="nonzero"></path>
                <path d="M422.831,86.736 L479.108,86.736 L477.832,69.42 L391.252,69.42 L379.039,138.684 L405.013,138.684 L412.646,95.394 C413.489,90.613 418.049,86.736 422.831,86.736 Z" id="Path" fill="#9BD6FF" fill-rule="nonzero"></path>
                <path d="M394.305,52.104 L463.569,52.104 C468.35,52.104 471.543,55.981 470.7,60.762 L469.173,69.42 L391.251,69.42 L394.305,52.104 Z" id="Path" fill="#AFB9D2" fill-rule="nonzero"></path>
                <polygon id="Path" fill="#F1F4FB" fill-rule="nonzero" points="485.487 173.316 511.461 173.316 505.354 207.948 479.38 207.948"></polygon>
                <path d="M468.171,173.316 L465.118,190.632 C463.432,200.195 469.817,207.948 479.381,207.948 L488.039,207.948 L494.145,173.316 L468.171,173.316 L468.171,173.316 Z" id="Path" fill="#FFC850" fill-rule="nonzero"></path>
                <path d="M394.807,0.156 L100.435,0.156 C95.654,0.156 91.093,4.033 90.25,8.814 L59.718,181.974 L33.743,181.974 C28.957,181.974 24.401,185.851 23.558,190.632 C22.715,195.413 25.904,199.29 30.689,199.29 L91.295,199.29 C96.081,199.29 99.269,203.167 98.426,207.948 C97.583,212.729 93.027,216.606 88.241,216.606 L53.609,216.606 L47.503,251.238 C46.66,256.019 49.853,259.896 54.634,259.896 L357.664,259.896 L401.937,8.814 C402.781,4.031 399.589,0.156 394.807,0.156 Z" id="Path" fill="#1879BE" fill-rule="nonzero"></path>
                <path d="M188.412,216.606 C180.301,211.192 170.364,207.948 159.033,207.948 C147.702,207.948 136.622,211.192 126.601,216.606 L10.32,216.606 C5.534,216.606 0.978,220.483 0.135,225.264 C-0.708,230.045 2.481,233.922 7.266,233.922 L50.556,233.922 L47.503,251.238 C46.66,256.019 49.853,259.896 54.634,259.896 L357.664,259.896 L365.297,216.606 L188.412,216.606 Z" id="Path" fill="#1879BE" fill-rule="nonzero"></path>
                <path d="M191.637,268.554 C187.422,292.462 164.622,311.844 140.714,311.844 C116.806,311.844 100.842,292.462 105.057,268.554 C109.272,244.646 132.072,225.264 155.98,225.264 C179.888,225.264 195.853,244.645 191.637,268.554 Z" id="Path" fill="#5B5D6E" fill-rule="nonzero"></path>
                <path d="M174.321,268.554 C171.792,282.899 158.112,294.528 143.767,294.528 C129.422,294.528 119.844,282.899 122.373,268.554 C124.902,254.209 138.582,242.58 152.927,242.58 C167.273,242.58 176.85,254.209 174.321,268.554 Z" id="Path" fill="#C7CFE2" fill-rule="nonzero"></path>
                <path d="M157.005,268.554 C156.162,273.335 151.602,277.212 146.82,277.212 C142.039,277.212 138.846,273.335 139.689,268.554 C140.532,263.773 145.092,259.896 149.874,259.896 C154.656,259.896 157.848,263.773 157.005,268.554 Z" id="Path" fill="#7F8499" fill-rule="nonzero"></path>
            </g>
            <text font-family="Pacifico" font-size="36" font-weight="normal" letter-spacing="0.371376" fill="#3C3C3A">
                <tspan x="156.237847" y="138">Friulivery</tspan>
            </text>
            <text id="Friu" fill="#FFFFFF" fill-rule="evenodd" font-family="Pacifico" font-size="36" font-weight="normal" letter-spacing="0.371376">
                <tspan x="154.113693" y="139">Friu</tspan>
            </text>
        </g>
    </g>
</svg>