<?xml version="1.0" encoding="UTF-8"?>
<svg width="1938px" height="534px" viewBox="0 0 1938 534" version="1.1" xmlns="http://www.w3.org/2000/svg" xmlns:xlink="http://www.w3.org/1999/xlink">
    <!-- Generator: Sketch 58 (84663) - https://sketch.com -->
    <title>Heroimage</title>
    <desc>Created with Sketch.</desc>
    <defs>
        <rect id="path-1" x="0" y="0" width="1938" height="534"></rect>
        <polygon id="path-3" points="0.479780855 0.0896334479 178.951743 0.0896334479 178.951743 72.7751717 0.479780855 72.7751717"></polygon>
    </defs>
    <g id="Foozi" stroke="none" stroke-width="1" fill="none" fill-rule="evenodd">
        <g id="Heroimage">
            <g id="img" stroke-width="1" fill-rule="evenodd">
                <mask id="mask-2" fill="white">
                    <use xlink:href="#path-1"></use>
                </mask>
                <use id="Mask-2" fill="#E0FAF2" opacity="0.859723772" xlink:href="#path-1"></use>
                <g id="Page-1" mask="url(#mask-2)" fill="#EFFFFA">
                    <g transform="translate(26.716049, 54.761317)" id="Fill-1">
                        <path d="M526.120139,30.7323497 C523.075807,30.7323497 520.260917,31.706596 517.950799,33.3473043 C513.784617,25.3836891 505.476405,19.9453591 495.89177,19.9453591 C491.715928,19.9453591 487.78764,20.9874633 484.330313,22.809934 C483.113063,10.1435204 472.48145,0.238683128 459.53851,0.238683128 C447.417939,0.238683128 437.329741,8.92692431 435.095701,20.433694 C433.511344,20.1162157 431.873853,19.9453591 430.196512,19.9453591 C416.437243,19.9453591 405.283951,31.1370739 405.283951,44.9449551 C405.283951,58.7516246 416.437243,69.9433395 430.196512,69.9433395 C435.678966,69.9433395 440.732726,68.1451038 444.846982,65.1339072 C449.388725,71.254452 456.633051,75.2386831 464.821712,75.2386831 C472.309972,75.2386831 479.009676,71.906373 483.577985,66.6582876 C487.211621,68.7388609 491.407992,69.9433395 495.89177,69.9433395 C505.476405,69.9433395 513.784617,64.5050094 517.950799,56.5413942 C520.260917,58.1821025 523.075807,59.1563488 526.120139,59.1563488 C533.942901,59.1563488 540.283951,52.7934542 540.283951,44.9449551 C540.283951,37.0952443 533.942901,30.7323497 526.120139,30.7323497"></path>
                        <path d="M121.120139,125.73235 C118.075807,125.73235 115.260917,126.706596 112.950799,128.347304 C108.784617,120.383689 100.476405,114.945359 90.8917704,114.945359 C86.7159276,114.945359 82.7876405,115.987463 79.3303131,117.809934 C78.1130634,105.14352 67.4814496,95.2386831 54.5385104,95.2386831 C42.4179393,95.2386831 32.3297406,103.926924 30.0957009,115.433694 C28.5113441,115.116216 26.8738534,114.945359 25.1965122,114.945359 C11.4372429,114.945359 0.283950617,126.137074 0.283950617,139.944955 C0.283950617,153.751625 11.4372429,164.943339 25.1965122,164.943339 C30.6789664,164.943339 35.7327265,163.145104 39.8469823,160.133907 C44.3887246,166.254452 51.6330512,170.238683 59.8217124,170.238683 C67.3099719,170.238683 74.0096758,166.906373 78.5779851,161.658288 C82.2116205,163.738861 86.4079924,164.943339 90.8917704,164.943339 C100.476405,164.943339 108.784617,159.505009 112.950799,151.541394 C115.260917,153.182103 118.075807,154.156349 121.120139,154.156349 C128.942901,154.156349 135.283951,147.793454 135.283951,139.944955 C135.283951,132.095244 128.942901,125.73235 121.120139,125.73235"></path>
                    </g>
                </g>
                <g id="Page-1" mask="url(#mask-2)" fill="#EFFFFA">
                    <g transform="translate(761.000000, 49.000000)" id="Fill-1">
                        <path d="M692.836188,30.4936666 C689.791856,30.4936666 686.976966,31.4679129 684.666849,33.1086212 C680.500666,25.145006 672.192454,19.7066759 662.60782,19.7066759 C658.431977,19.7066759 654.50369,20.7487802 651.046362,22.5712508 C649.829113,9.9048373 639.197499,0 626.25456,0 C614.133989,0 604.04579,8.68824119 601.81175,20.1950108 C600.227393,19.8775326 598.589903,19.7066759 596.912562,19.7066759 C583.153292,19.7066759 572,30.8983908 572,44.706272 C572,58.5129415 583.153292,69.7046563 596.912562,69.7046563 C602.395016,69.7046563 607.448776,67.9064207 611.563032,64.8952241 C616.104774,71.0157689 623.349101,75 631.537762,75 C639.026021,75 645.725725,71.6676899 650.294035,66.4196045 C653.92767,68.5001777 658.124042,69.7046563 662.60782,69.7046563 C672.192454,69.7046563 680.500666,64.2663263 684.666849,56.3027111 C686.976966,57.9434194 689.791856,58.9176657 692.836188,58.9176657 C700.65895,58.9176657 707,52.5547711 707,44.706272 C707,36.8565612 700.65895,30.4936666 692.836188,30.4936666"></path>
                        <path d="M1095.83619,149.493667 C1092.79186,149.493667 1089.97697,150.467913 1087.66685,152.108621 C1083.50067,144.145006 1075.19245,138.706676 1065.60782,138.706676 C1061.43198,138.706676 1057.50369,139.74878 1054.04636,141.571251 C1052.82911,128.904837 1042.1975,119 1029.25456,119 C1017.13399,119 1007.04579,127.688241 1004.81175,139.195011 C1003.22739,138.877533 1001.5899,138.706676 999.912562,138.706676 C986.153292,138.706676 975,149.898391 975,163.706272 C975,177.512941 986.153292,188.704656 999.912562,188.704656 C1005.39502,188.704656 1010.44878,186.906421 1014.56303,183.895224 C1019.10477,190.015769 1026.3491,194 1034.53776,194 C1042.02602,194 1048.72573,190.66769 1053.29403,185.419604 C1056.92767,187.500178 1061.12404,188.704656 1065.60782,188.704656 C1075.19245,188.704656 1083.50067,183.266326 1087.66685,175.302711 C1089.97697,176.943419 1092.79186,177.917666 1095.83619,177.917666 C1103.65895,177.917666 1110,171.554771 1110,163.706272 C1110,155.856561 1103.65895,149.493667 1095.83619,149.493667"></path>
                        <path d="M120.836188,149.493667 C117.791856,149.493667 114.976966,150.467913 112.666849,152.108621 C108.500666,144.145006 100.192454,138.706676 90.6078198,138.706676 C86.431977,138.706676 82.5036899,139.74878 79.0463625,141.571251 C77.8291127,128.904837 67.1974989,119 54.2545598,119 C42.1339887,119 32.04579,127.688241 29.8117503,139.195011 C28.2273935,138.877533 26.5899028,138.706676 24.9125616,138.706676 C11.1532922,138.706676 0,149.898391 0,163.706272 C0,177.512941 11.1532922,188.704656 24.9125616,188.704656 C30.3950158,188.704656 35.4487759,186.906421 39.5630317,183.895224 C44.104774,190.015769 51.3491006,194 59.5377618,194 C67.0260213,194 73.7257252,190.66769 78.2940345,185.419604 C81.9276699,187.500178 86.1240418,188.704656 90.6078198,188.704656 C100.192454,188.704656 108.500666,183.266326 112.666849,175.302711 C114.976966,176.943419 117.791856,177.917666 120.836188,177.917666 C128.65895,177.917666 135,171.554771 135,163.706272 C135,155.856561 128.65895,149.493667 120.836188,149.493667"></path>
                    </g>
                </g>
                <g id="Page-1" mask="url(#mask-2)">
                    <g transform="translate(272.716049, 262.261317) scale(-1, 1) translate(-272.716049, -262.261317) translate(151.716049, 133.761317)">
                        <path d="M157.716049,226.239063 C157.716049,242.794119 171.144787,256.238683 187.722134,256.238683 C204.274382,256.238683 217.716049,242.794119 217.716049,226.239063 C217.716049,209.671076 204.274382,196.238683 187.722134,196.238683 C171.144787,196.238683 157.716049,209.671076 157.716049,226.239063" id="Fill-1" fill="#1F2724"></path>
                        <path d="M172.716049,226.739449 C172.716049,235.298042 179.656942,242.238683 188.215666,242.238683 C196.773624,242.238683 203.716049,235.298042 203.716049,226.739449 C203.716049,218.179325 196.773624,211.238683 188.215666,211.238683 C179.656942,211.238683 172.716049,218.179325 172.716049,226.739449" id="Fill-3" fill="#94C4B4"></path>
                        <path d="M179.716049,225.744606 C179.716049,230.422568 183.534251,234.238683 188.228275,234.238683 C192.910444,234.238683 196.716049,230.422568 196.716049,225.744606 C196.716049,221.054058 192.910444,217.238683 188.228275,217.238683 C183.534251,217.238683 179.716049,221.054058 179.716049,225.744606" id="Fill-5" fill="#FFFFFF"></path>
                        <g id="Group-9" stroke-width="1" fill="none" transform="translate(61.716049, 151.238683)">
                            <mask id="mask-4" fill="white">
                                <use xlink:href="#path-3"></use>
                            </mask>
                            <g id="Clip-8"></g>
                            <path d="M81.2734523,40.7874969 C82.0319183,43.9025724 81.5947206,47.2776176 81.2461748,50.9111121 L7.09371764,50.9111121 L16.4624843,72.7751717 L82.3350016,72.7751717 L165.884458,72.7751717 L178.12675,72.7751717 C178.659419,69.1553597 178.951894,65.4291274 178.951894,61.6154784 C178.951894,27.8673071 157.138989,0.50967743 130.230497,0.50967743 C71.8763548,0.50967743 69.6555119,-6.92758427 81.2734523,40.7874969 Z" id="Fill-7" fill="#67D5B0" mask="url(#mask-4)"></path>
                        </g>
                        <path d="M116.716049,19.1653494 C116.716049,19.1653494 119.184826,44.4522436 123.293228,44.9918008 C127.40163,45.531358 130.673412,45.1455251 133.706159,47.8121099 C136.738907,50.4779336 140.064472,39.7773492 140.064472,39.7773492 L141.716049,21.2033386 L132.589421,10.2386831 L116.716049,19.1653494 Z" id="Fill-10" fill="#FFDEC5"></path>
                        <polygon id="Fill-12" fill="#67D5B0" points="63.9393048 199.238683 45.7160494 185.33657 63.9393048 103.238683 76.7160494 103.238683"></polygon>
                        <polygon id="Fill-14" fill="#1F2724" points="62.7160494 108.238683 95.7160494 108.238683 95.7160494 103.238683 62.7160494 103.238683"></polygon>
                        <polygon id="Fill-16" fill="#282828" points="82.7160494 108.238683 95.7160494 108.238683 95.7160494 103.238683 82.7160494 103.238683"></polygon>
                        <path d="M55.7160494,97.2386831 L55.7160494,117.238683 C61.2433655,117.238683 65.7160494,112.763331 65.7160494,107.233463 C65.7160494,101.702849 61.2433655,97.2386831 55.7160494,97.2386831" id="Fill-17" fill="#1F2724"></path>
                        <polygon id="Fill-18" fill="#67D5B0" points="53.7160494 117.238683 55.4657998 117.238683 55.4657998 97.2386831 53.7160494 97.2386831"></polygon>
                        <polygon id="Fill-19" fill="#FFDEC5" points="142.716049 53.6062163 133.089428 55.2386831 130.716049 40.853662 140.330639 39.2386831"></polygon>
                        <path d="M160.716049,122.238683 L103.471359,123.830916 C97.5217771,123.996392 93.0225232,129.345012 93.8045113,135.32351 L101.376775,193.238683 L114.002233,193.238683 L110.573226,140.031577 C110.513015,139.105825 111.222751,138.312759 112.138708,138.283019 L159.351522,136.718239 L160.716049,122.238683 Z" id="Fill-20" fill="#394A63"></path>
                        <path d="M161.443301,123.937235 L136.752399,124.238683 L128.716049,56.4644291 L146.737022,46.2386831 C158.70821,69.4524369 162.884048,96.780423 161.443301,123.937235" id="Fill-21" fill="#FF7467"></path>
                        <path d="M147.707337,57.5527396 C147.884141,54.2558406 145.34893,51.4230056 142.031378,51.2473728 C139.418009,51.1080779 137.109684,52.6562199 136.164197,54.9719982 C136.164197,54.9719982 135.823488,56.0810584 135.772647,56.4330809 C134.079724,63.8482649 123.898663,97.5689941 90.0136446,101.236085 C89.5629067,101.285292 89.5720125,104.928914 90.4051947,108.238683 C141.727092,106.515665 147.683054,57.8169458 147.683054,57.8169458 L147.670154,57.8169458 C147.683054,57.7291294 147.695195,57.6534256 147.707337,57.5527396" id="Fill-22" fill="#FFDEC5"></path>
                        <path d="M101.138622,191.382951 L80.1452923,197.465616 C79.8910953,197.538518 79.7160494,197.775062 79.7160494,198.044179 L79.7160494,199.174936 L79.7160494,200.637629 C79.7160494,200.969566 79.9801404,201.238683 80.3058779,201.238683 L90.8740831,201.238683 C90.8923488,201.238683 90.9113755,201.237908 90.9296412,201.236356 L103.225473,200.038127 C103.572521,200.004778 103.872382,200.282426 103.872382,200.637629 C103.872382,200.969566 104.136473,201.238683 104.462972,201.238683 L113.12546,201.238683 C113.451958,201.238683 113.716049,200.969566 113.716049,200.637629 L113.716049,199.174936 L113.716049,191.840527 C113.716049,191.506264 113.448153,191.236371 113.119371,191.238683 L101.29388,191.36046 C101.241366,191.361235 101.188852,191.368215 101.138622,191.382951" id="Fill-23" fill="#FF7467"></path>
                        <path d="M71.7160494,226.239063 C71.7160494,242.794119 58.2871411,256.238683 41.7095848,256.238683 C25.1578869,256.238683 11.7160494,242.794119 11.7160494,226.239063 C11.7160494,209.671076 25.1578869,196.238683 41.7095848,196.238683 C58.2871411,196.238683 71.7160494,209.671076 71.7160494,226.239063" id="Fill-24" fill="#1F2724"></path>
                        <path d="M57.7160494,226.739449 C57.7160494,235.298042 50.7751564,242.238683 42.2164324,242.238683 C33.6584744,242.238683 26.7160494,235.298042 26.7160494,226.739449 C26.7160494,218.179325 33.6584744,211.238683 42.2164324,211.238683 C50.7751564,211.238683 57.7160494,218.179325 57.7160494,226.739449" id="Fill-25" fill="#94C4B4"></path>
                        <path d="M50.7160494,225.744606 C50.7160494,230.422568 46.8971068,234.238683 42.2030825,234.238683 C37.5216546,234.238683 33.7160494,230.422568 33.7160494,225.744606 C33.7160494,221.054058 37.5216546,217.238683 42.2030825,217.238683 C46.8971068,217.238683 50.7160494,221.054058 50.7160494,225.744606" id="Fill-26" fill="#FFFFFF"></path>
                        <path d="M41.7850564,182.238683 C23.0780131,182.238683 7.07542926,193.939917 0.716049383,210.381446 L12.0420618,214.644539 C16.6694062,202.76511 28.2536713,194.319714 41.7850564,194.319714 C58.4079013,194.319714 72.096813,207.049346 73.5668089,223.238683 L85.7160494,223.238683 C84.2172745,200.381372 65.0921798,182.238683 41.7850564,182.238683" id="Fill-27" fill="#67D5B0"></path>
                        <path d="M165.716049,136.238683 L225.716049,136.238683 C227.372904,136.238683 228.716049,134.895537 228.716049,133.238683 L228.716049,73.2386831 C228.716049,71.5818289 227.372904,70.2386831 225.716049,70.2386831 L165.716049,70.2386831 C164.059195,70.2386831 162.716049,71.5818289 162.716049,73.2386831 L162.716049,133.238683 C162.716049,134.895537 164.059195,136.238683 165.716049,136.238683 Z" id="Fill-28" fill="#389ADF"></path>
                        <polygon id="Fill-29" fill="#1879BE" points="162.716049 94.2386831 228.716049 94.2386831 228.716049 86.2386831 162.716049 86.2386831"></polygon>
                        <path d="M189.300505,151.238683 L140.132352,151.238683 C136.036522,151.238683 132.716049,147.880566 132.716049,143.739066 C132.716049,139.596801 136.036522,136.238683 140.132352,136.238683 L189.300505,136.238683 C193.395577,136.238683 196.716049,139.596801 196.716049,143.739066 C196.716049,147.880566 193.395577,151.238683 189.300505,151.238683" id="Fill-30" fill="#1F2724"></path>
                        <path d="M124.390268,15.2909213 C124.390268,15.2909213 126.018485,23.4901614 127.696366,26.0230048 C128.694231,27.5292622 130.440114,26.0230048 130.440114,26.0230048 C130.440114,26.0230048 135.531061,21.7268839 136.169053,26.0230048 C136.806281,30.3191257 133.750032,32.9341558 133.750032,32.9341558 C133.750032,32.9341558 134.560702,39.1728705 136.256156,39.8826644 C137.952375,40.5924582 143.768418,40.4056704 144.5852,37.7906403 C145.401983,35.1756102 147.879837,19.5758349 146.068245,16.5424 C144.255889,13.5082179 121.716049,10.2386831 121.716049,10.2386831 L124.390268,15.2909213 Z" id="Fill-33" fill="#1F2724"></path>
                        <path d="M146.716049,18.810618 L143.874128,6.13961311 L137.202826,1.23868313 L133.619735,1.23868313 L119.040311,3.15095148 L114.716049,12.5942611 C114.716049,12.5942611 122.252818,14.7463054 125.2175,17.6154502 C125.2175,17.6154502 140.291037,20.2448192 146.716049,18.810618" id="Fill-31" fill="#FF7467"></path>
                        <path d="M115.316095,11.2493373 L100.716049,13.7472855 C100.716049,13.7472855 106.126133,22.3272928 127.716049,18.037666 C127.716049,18.037666 117.20145,10.9267296 115.316095,11.2493373" id="Fill-32" fill="#FF7467"></path>
                        <path d="M137.716049,1.23868313 C137.716049,1.79124723 136.597253,2.23868313 135.216049,2.23868313 C133.835559,2.23868313 132.716049,1.79124723 132.716049,1.23868313 C132.716049,0.686760051 133.835559,0.238683128 135.216049,0.238683128 C136.597253,0.238683128 137.716049,0.686760051 137.716049,1.23868313" id="Fill-34" fill="#DD5C50"></path>
                        <path d="M147.662028,57.7774752 C147.623762,56.1828498 147.027274,54.6694983 145.953594,53.4676971 C144.759117,52.1319443 143.11746,51.3432857 141.332496,51.2484661 C141.211698,51.2416933 141.090899,51.2386831 140.970851,51.2386831 C138.251764,51.2386831 135.828294,52.8792133 134.774123,55.4814855 C134.714849,55.67564 134.41773,56.6599581 134.373462,56.9873116 C133.758967,59.6904237 131.89297,66.7070766 127.716049,74.3566129 L138.915779,82.2386831 C146.135167,70.3049549 147.611758,58.7399697 147.625263,58.6210689 L147.716049,57.7774752 L147.662028,57.7774752 Z" id="Fill-35" fill="#67D5B0"></path>
                        <path d="M89.5796324,100.817625 L88.183065,99.8928308 C86.8517858,99.0100024 85.1437861,99.0216595 83.8245139,99.9223621 L81.3608219,101.602534 C80.2164021,102.38278 79.5890349,103.761422 79.7376219,105.172704 L79.9199786,106.911939 C80.0843248,108.479425 81.5409273,109.538664 83.0192926,109.162529 C85.4619723,108.540819 88.6505887,108.829137 90.3203159,108.738989 C93.1269587,108.588225 90.92517,104.017101 90.3735971,101.931263 C90.2512755,101.469643 89.9691104,101.075634 89.5796324,100.817625" id="Fill-36" fill="#FFDEC5"></path>
                    </g>
                </g>
                <polygon id="Rectangle" fill="#67D5B0" opacity="0.200000003" mask="url(#mask-2)" points="10.7160494 390.761317 1937.71605 390.761317 1937.71605 530.761317 10.7160494 530.761317"></polygon>
                <g id="Page-1" mask="url(#mask-2)" fill="#C8F3E4">
                    <g transform="translate(75.716049, 253.761317)">
                        <path d="M57.2839506,41.7386831 C57.2839506,64.6575522 44.5242614,83.2386831 28.7834564,83.2386831 C13.0436399,83.2386831 0.283950617,64.6575522 0.283950617,41.7386831 C0.283950617,18.818826 13.0436399,0.238683128 28.7834564,0.238683128 C44.5242614,0.238683128 57.2839506,18.818826 57.2839506,41.7386831" id="Fill-1"></path>
                        <polygon id="Fill-3" points="25.2839506 148.238683 32.2839506 148.238683 32.2839506 77.2386831 25.2839506 77.2386831"></polygon>
                    </g>
                </g>
                <g id="Page-1" mask="url(#mask-2)" fill="#C8F3E4">
                    <g transform="translate(440.000000, 254.000000)">
                        <path d="M56.2839506,41.7386831 C56.2839506,64.6575522 43.7481156,83.2386831 28.2834651,83.2386831 C12.8197857,83.2386831 0.283950617,64.6575522 0.283950617,41.7386831 C0.283950617,18.818826 12.8197857,0.238683128 28.2834651,0.238683128 C43.7481156,0.238683128 56.2839506,18.818826 56.2839506,41.7386831" id="Fill-1"></path>
                        <polygon id="Fill-3" points="24.2839506 148.238683 31.2839506 148.238683 31.2839506 77.2386831 24.2839506 77.2386831"></polygon>
                    </g>
                </g>
            </g>
            <text id="Friulivery" font-family="Pacifico" font-size="14" font-weight="normal" letter-spacing="0.144424" fill="#3C3C3A">
                <tspan x="168.925829" y="247">Friulivery</tspan>
            </text>
            <text id="Friu" fill="#FFFFFF" fill-rule="evenodd" font-family="Pacifico" font-size="14" font-weight="normal" letter-spacing="0.144424">
                <tspan x="168.321992" y="247">Friu</tspan>
            </text>
            <g id="Friulivery" transform="translate(1113.000000, 91.000000)">
                <g id="fast-delivery" stroke-width="1" fill-rule="evenodd">
                    <path d="M482.935,138.684 L379.039,138.684 L357.666,259.896 L488.93,259.896 C493.131,259.896 496.727,256.88 497.456,252.741 L511.46,173.316 C514.833,154.189 502.062,138.684 482.935,138.684 Z" id="Path" fill="#C7CFE2" fill-rule="nonzero"></path>
                    <path d="M375.986,156 L479.882,156 C489.446,156 495.831,163.752 494.145,173.316 L478.879,259.896 L357.667,259.896 L375.986,156 Z" id="Path" fill="#AFB9D2" fill-rule="nonzero"></path>
                    <path d="M478.189,259.896 C479.154,230.537 457.955,207.948 427.431,207.948 C396.907,207.948 367.742,230.537 358.354,259.896 L478.189,259.896 Z" id="Path" fill="#959CB5" fill-rule="nonzero"></path>
                    <path d="M466.622,34.788 L397.358,34.788 L391.252,69.42 L482.858,69.42 C484.959,69.42 486.756,67.911 487.121,65.843 L488.017,60.762 C490.546,46.417 480.967,34.788 466.622,34.788 Z" id="Path" fill="#C7CFE2" fill-rule="nonzero"></path>
                    <path d="M460.036,268.554 C455.821,292.462 433.021,311.844 409.113,311.844 C385.205,311.844 369.241,292.462 373.456,268.554 C377.671,244.646 400.471,225.264 424.379,225.264 C448.287,225.264 464.251,244.645 460.036,268.554 Z" id="Path" fill="#5B5D6E" fill-rule="nonzero"></path>
                    <polygon id="Path" fill="#B4E6FF" fill-rule="nonzero" points="482.935 138.684 477.832 69.42 391.252 69.42 379.039 138.684"></polygon>
                    <path d="M442.72,268.554 C440.191,282.899 426.511,294.528 412.166,294.528 C397.821,294.528 388.243,282.899 390.772,268.554 C393.301,254.209 406.981,242.58 421.326,242.58 C435.67,242.58 445.249,254.209 442.72,268.554 Z" id="Path" fill="#C7CFE2" fill-rule="nonzero"></path>
                    <path d="M425.404,268.554 C424.561,273.335 420.001,277.212 415.219,277.212 C410.436,277.212 407.245,273.335 408.088,268.554 C408.931,263.773 413.491,259.896 418.273,259.896 C423.054,259.896 426.247,263.773 425.404,268.554 Z" id="Path" fill="#7F8499" fill-rule="nonzero"></path>
                    <path d="M422.831,86.736 L479.108,86.736 L477.832,69.42 L391.252,69.42 L379.039,138.684 L405.013,138.684 L412.646,95.394 C413.489,90.613 418.049,86.736 422.831,86.736 Z" id="Path" fill="#9BD6FF" fill-rule="nonzero"></path>
                    <path d="M394.305,52.104 L463.569,52.104 C468.35,52.104 471.543,55.981 470.7,60.762 L469.173,69.42 L391.251,69.42 L394.305,52.104 Z" id="Path" fill="#AFB9D2" fill-rule="nonzero"></path>
                    <polygon id="Path" fill="#F1F4FB" fill-rule="nonzero" points="485.487 173.316 511.461 173.316 505.354 207.948 479.38 207.948"></polygon>
                    <path d="M468.171,173.316 L465.118,190.632 C463.432,200.195 469.817,207.948 479.381,207.948 L488.039,207.948 L494.145,173.316 L468.171,173.316 L468.171,173.316 Z" id="Path" fill="#FFC850" fill-rule="nonzero"></path>
                    <path d="M394.807,0.156 L100.435,0.156 C95.654,0.156 91.093,4.033 90.25,8.814 L59.718,181.974 L33.743,181.974 C28.957,181.974 24.401,185.851 23.558,190.632 C22.715,195.413 25.904,199.29 30.689,199.29 L91.295,199.29 C96.081,199.29 99.269,203.167 98.426,207.948 C97.583,212.729 93.027,216.606 88.241,216.606 L53.609,216.606 L47.503,251.238 C46.66,256.019 49.853,259.896 54.634,259.896 L357.664,259.896 L401.937,8.814 C402.781,4.031 399.589,0.156 394.807,0.156 Z" id="Path" fill="#1879BE" fill-rule="nonzero"></path>
                    <path d="M188.412,216.606 C180.301,211.192 170.364,207.948 159.033,207.948 C147.702,207.948 136.622,211.192 126.601,216.606 L10.32,216.606 C5.534,216.606 0.978,220.483 0.135,225.264 C-0.708,230.045 2.481,233.922 7.266,233.922 L50.556,233.922 L47.503,251.238 C46.66,256.019 49.853,259.896 54.634,259.896 L357.664,259.896 L365.297,216.606 L188.412,216.606 Z" id="Path" fill="#1879BE" fill-rule="nonzero"></path>
                    <path d="M191.637,268.554 C187.422,292.462 164.622,311.844 140.714,311.844 C116.806,311.844 100.842,292.462 105.057,268.554 C109.272,244.646 132.072,225.264 155.98,225.264 C179.888,225.264 195.853,244.645 191.637,268.554 Z" id="Path" fill="#5B5D6E" fill-rule="nonzero"></path>
                    <path d="M174.321,268.554 C171.792,282.899 158.112,294.528 143.767,294.528 C129.422,294.528 119.844,282.899 122.373,268.554 C124.902,254.209 138.582,242.58 152.927,242.58 C167.273,242.58 176.85,254.209 174.321,268.554 Z" id="Path" fill="#C7CFE2" fill-rule="nonzero"></path>
                    <path d="M157.005,268.554 C156.162,273.335 151.602,277.212 146.82,277.212 C142.039,277.212 138.846,273.335 139.689,268.554 C140.532,263.773 145.092,259.896 149.874,259.896 C154.656,259.896 157.848,263.773 157.005,268.554 Z" id="Path" fill="#7F8499" fill-rule="nonzero"></path>
                </g>
                <text font-family="Pacifico" font-size="36" font-weight="normal" letter-spacing="0.371376" fill="#3C3C3A">
                    <tspan x="156.237847" y="138">Friulivery</tspan>
                </text>
                <text id="Friu" fill="#FFFFFF" fill-rule="evenodd" font-family="Pacifico" font-size="36" font-weight="normal" letter-spacing="0.371376">
                    <tspan x="154.113693" y="139">Friu</tspan>
                </text>
            </g>
        </g>
    </g>
</svg>