<?xml version="1.0" encoding="UTF-8"?>
<svg width="240px" height="256px" viewBox="0 0 240 256" version="1.1" xmlns="http://www.w3.org/2000/svg" xmlns:xlink="http://www.w3.org/1999/xlink">
    <!-- Generator: Sketch 58 (84663) - https://sketch.com -->
    <title>logonueve</title>
    <desc>Created with Sketch.</desc>
    <defs>
        <polygon id="path-1" points="0.479780855 0.0896334479 178.951743 0.0896334479 178.951743 72.7751717 0.479780855 72.7751717"></polygon>
    </defs>
    <g id="Symbols" stroke="none" stroke-width="1" fill="none" fill-rule="evenodd">
        <g id="banner" transform="translate(-663.000000, -134.000000)">
            <g id="img">
                <g id="logonueve" transform="translate(661.716049, 133.761317)">
                    <g id="Page-1" stroke-width="1" fill-rule="evenodd" transform="translate(121.000000, 128.500000) scale(-1, 1) translate(-121.000000, -128.500000) ">
                        <path d="M157.716049,226.239063 C157.716049,242.794119 171.144787,256.238683 187.722134,256.238683 C204.274382,256.238683 217.716049,242.794119 217.716049,226.239063 C217.716049,209.671076 204.274382,196.238683 187.722134,196.238683 C171.144787,196.238683 157.716049,209.671076 157.716049,226.239063" id="Fill-1" fill="#1F2724"></path>
                        <path d="M172.716049,226.739449 C172.716049,235.298042 179.656942,242.238683 188.215666,242.238683 C196.773624,242.238683 203.716049,235.298042 203.716049,226.739449 C203.716049,218.179325 196.773624,211.238683 188.215666,211.238683 C179.656942,211.238683 172.716049,218.179325 172.716049,226.739449" id="Fill-3" fill="#94C4B4"></path>
                        <path d="M179.716049,225.744606 C179.716049,230.422568 183.534251,234.238683 188.228275,234.238683 C192.910444,234.238683 196.716049,230.422568 196.716049,225.744606 C196.716049,221.054058 192.910444,217.238683 188.228275,217.238683 C183.534251,217.238683 179.716049,221.054058 179.716049,225.744606" id="Fill-5" fill="#FFFFFF"></path>
                        <g id="Group-9" transform="translate(61.716049, 151.238683)">
                            <mask id="mask-2" fill="white">
                                <use xlink:href="#path-1"></use>
                            </mask>
                            <g id="Clip-8"></g>
                            <path d="M81.2734523,40.7874969 C82.0319183,43.9025724 81.5947206,47.2776176 81.2461748,50.9111121 L7.09371764,50.9111121 L16.4624843,72.7751717 L82.3350016,72.7751717 L165.884458,72.7751717 L178.12675,72.7751717 C178.659419,69.1553597 178.951894,65.4291274 178.951894,61.6154784 C178.951894,27.8673071 157.138989,0.50967743 130.230497,0.50967743 C71.8763548,0.50967743 69.6555119,-6.92758427 81.2734523,40.7874969 Z" id="Fill-7" fill="#67D5B0" mask="url(#mask-2)"></path>
                        </g>
                        <path d="M116.716049,19.1653494 C116.716049,19.1653494 119.184826,44.4522436 123.293228,44.9918008 C127.40163,45.531358 130.673412,45.1455251 133.706159,47.8121099 C136.738907,50.4779336 140.064472,39.7773492 140.064472,39.7773492 L141.716049,21.2033386 L132.589421,10.2386831 L116.716049,19.1653494 Z" id="Fill-10" fill="#FFDEC5"></path>
                        <polygon id="Fill-12" fill="#67D5B0" points="63.9393048 199.238683 45.7160494 185.33657 63.9393048 103.238683 76.7160494 103.238683"></polygon>
                        <polygon id="Fill-14" fill="#1F2724" points="62.7160494 108.238683 95.7160494 108.238683 95.7160494 103.238683 62.7160494 103.238683"></polygon>
                        <polygon id="Fill-16" fill="#282828" points="82.7160494 108.238683 95.7160494 108.238683 95.7160494 103.238683 82.7160494 103.238683"></polygon>
                        <path d="M55.7160494,97.2386831 L55.7160494,117.238683 C61.2433655,117.238683 65.7160494,112.763331 65.7160494,107.233463 C65.7160494,101.702849 61.2433655,97.2386831 55.7160494,97.2386831" id="Fill-17" fill="#1F2724"></path>
                        <polygon id="Fill-18" fill="#67D5B0" points="53.7160494 117.238683 55.4657998 117.238683 55.4657998 97.2386831 53.7160494 97.2386831"></polygon>
                        <polygon id="Fill-19" fill="#FFDEC5" points="142.716049 53.6062163 133.089428 55.2386831 130.716049 40.853662 140.330639 39.2386831"></polygon>
                        <path d="M160.716049,122.238683 L103.471359,123.830916 C97.5217771,123.996392 93.0225232,129.345012 93.8045113,135.32351 L101.376775,193.238683 L114.002233,193.238683 L110.573226,140.031577 C110.513015,139.105825 111.222751,138.312759 112.138708,138.283019 L159.351522,136.718239 L160.716049,122.238683 Z" id="Fill-20" fill="#394A63"></path>
                        <path d="M161.443301,123.937235 L136.752399,124.238683 L128.716049,56.4644291 L146.737022,46.2386831 C158.70821,69.4524369 162.884048,96.780423 161.443301,123.937235" id="Fill-21" fill="#FF7467"></path>
                        <path d="M147.707337,57.5527396 C147.884141,54.2558406 145.34893,51.4230056 142.031378,51.2473728 C139.418009,51.1080779 137.109684,52.6562199 136.164197,54.9719982 C136.164197,54.9719982 135.823488,56.0810584 135.772647,56.4330809 C134.079724,63.8482649 123.898663,97.5689941 90.0136446,101.236085 C89.5629067,101.285292 89.5720125,104.928914 90.4051947,108.238683 C141.727092,106.515665 147.683054,57.8169458 147.683054,57.8169458 L147.670154,57.8169458 C147.683054,57.7291294 147.695195,57.6534256 147.707337,57.5527396" id="Fill-22" fill="#FFDEC5"></path>
                        <path d="M101.138622,191.382951 L80.1452923,197.465616 C79.8910953,197.538518 79.7160494,197.775062 79.7160494,198.044179 L79.7160494,199.174936 L79.7160494,200.637629 C79.7160494,200.969566 79.9801404,201.238683 80.3058779,201.238683 L90.8740831,201.238683 C90.8923488,201.238683 90.9113755,201.237908 90.9296412,201.236356 L103.225473,200.038127 C103.572521,200.004778 103.872382,200.282426 103.872382,200.637629 C103.872382,200.969566 104.136473,201.238683 104.462972,201.238683 L113.12546,201.238683 C113.451958,201.238683 113.716049,200.969566 113.716049,200.637629 L113.716049,199.174936 L113.716049,191.840527 C113.716049,191.506264 113.448153,191.236371 113.119371,191.238683 L101.29388,191.36046 C101.241366,191.361235 101.188852,191.368215 101.138622,191.382951" id="Fill-23" fill="#FF7467"></path>
                        <path d="M71.7160494,226.239063 C71.7160494,242.794119 58.2871411,256.238683 41.7095848,256.238683 C25.1578869,256.238683 11.7160494,242.794119 11.7160494,226.239063 C11.7160494,209.671076 25.1578869,196.238683 41.7095848,196.238683 C58.2871411,196.238683 71.7160494,209.671076 71.7160494,226.239063" id="Fill-24" fill="#1F2724"></path>
                        <path d="M57.7160494,226.739449 C57.7160494,235.298042 50.7751564,242.238683 42.2164324,242.238683 C33.6584744,242.238683 26.7160494,235.298042 26.7160494,226.739449 C26.7160494,218.179325 33.6584744,211.238683 42.2164324,211.238683 C50.7751564,211.238683 57.7160494,218.179325 57.7160494,226.739449" id="Fill-25" fill="#94C4B4"></path>
                        <path d="M50.7160494,225.744606 C50.7160494,230.422568 46.8971068,234.238683 42.2030825,234.238683 C37.5216546,234.238683 33.7160494,230.422568 33.7160494,225.744606 C33.7160494,221.054058 37.5216546,217.238683 42.2030825,217.238683 C46.8971068,217.238683 50.7160494,221.054058 50.7160494,225.744606" id="Fill-26" fill="#FFFFFF"></path>
                        <path d="M41.7850564,182.238683 C23.0780131,182.238683 7.07542926,193.939917 0.716049383,210.381446 L12.0420618,214.644539 C16.6694062,202.76511 28.2536713,194.319714 41.7850564,194.319714 C58.4079013,194.319714 72.096813,207.049346 73.5668089,223.238683 L85.7160494,223.238683 C84.2172745,200.381372 65.0921798,182.238683 41.7850564,182.238683" id="Fill-27" fill="#67D5B0"></path>
                        <path d="M165.716049,136.238683 L225.716049,136.238683 C227.372904,136.238683 228.716049,134.895537 228.716049,133.238683 L228.716049,73.2386831 C228.716049,71.5818289 227.372904,70.2386831 225.716049,70.2386831 L165.716049,70.2386831 C164.059195,70.2386831 162.716049,71.5818289 162.716049,73.2386831 L162.716049,133.238683 C162.716049,134.895537 164.059195,136.238683 165.716049,136.238683 Z" id="Fill-28" fill="#389ADF"></path>
                        <polygon id="Fill-29" fill="#1879BE" points="162.716049 94.2386831 228.716049 94.2386831 228.716049 86.2386831 162.716049 86.2386831"></polygon>
                        <path d="M189.300505,151.238683 L140.132352,151.238683 C136.036522,151.238683 132.716049,147.880566 132.716049,143.739066 C132.716049,139.596801 136.036522,136.238683 140.132352,136.238683 L189.300505,136.238683 C193.395577,136.238683 196.716049,139.596801 196.716049,143.739066 C196.716049,147.880566 193.395577,151.238683 189.300505,151.238683" id="Fill-30" fill="#1F2724"></path>
                        <path d="M124.390268,15.2909213 C124.390268,15.2909213 126.018485,23.4901614 127.696366,26.0230048 C128.694231,27.5292622 130.440114,26.0230048 130.440114,26.0230048 C130.440114,26.0230048 135.531061,21.7268839 136.169053,26.0230048 C136.806281,30.3191257 133.750032,32.9341558 133.750032,32.9341558 C133.750032,32.9341558 134.560702,39.1728705 136.256156,39.8826644 C137.952375,40.5924582 143.768418,40.4056704 144.5852,37.7906403 C145.401983,35.1756102 147.879837,19.5758349 146.068245,16.5424 C144.255889,13.5082179 121.716049,10.2386831 121.716049,10.2386831 L124.390268,15.2909213 Z" id="Fill-33" fill="#1F2724"></path>
                        <path d="M146.716049,18.810618 L143.874128,6.13961311 L137.202826,1.23868313 L133.619735,1.23868313 L119.040311,3.15095148 L114.716049,12.5942611 C114.716049,12.5942611 122.252818,14.7463054 125.2175,17.6154502 C125.2175,17.6154502 140.291037,20.2448192 146.716049,18.810618" id="Fill-31" fill="#FF7467"></path>
                        <path d="M115.316095,11.2493373 L100.716049,13.7472855 C100.716049,13.7472855 106.126133,22.3272928 127.716049,18.037666 C127.716049,18.037666 117.20145,10.9267296 115.316095,11.2493373" id="Fill-32" fill="#FF7467"></path>
                        <path d="M137.716049,1.23868313 C137.716049,1.79124723 136.597253,2.23868313 135.216049,2.23868313 C133.835559,2.23868313 132.716049,1.79124723 132.716049,1.23868313 C132.716049,0.686760051 133.835559,0.238683128 135.216049,0.238683128 C136.597253,0.238683128 137.716049,0.686760051 137.716049,1.23868313" id="Fill-34" fill="#DD5C50"></path>
                        <path d="M147.662028,57.7774752 C147.623762,56.1828498 147.027274,54.6694983 145.953594,53.4676971 C144.759117,52.1319443 143.11746,51.3432857 141.332496,51.2484661 C141.211698,51.2416933 141.090899,51.2386831 140.970851,51.2386831 C138.251764,51.2386831 135.828294,52.8792133 134.774123,55.4814855 C134.714849,55.67564 134.41773,56.6599581 134.373462,56.9873116 C133.758967,59.6904237 131.89297,66.7070766 127.716049,74.3566129 L138.915779,82.2386831 C146.135167,70.3049549 147.611758,58.7399697 147.625263,58.6210689 L147.716049,57.7774752 L147.662028,57.7774752 Z" id="Fill-35" fill="#67D5B0"></path>
                        <path d="M89.5796324,100.817625 L88.183065,99.8928308 C86.8517858,99.0100024 85.1437861,99.0216595 83.8245139,99.9223621 L81.3608219,101.602534 C80.2164021,102.38278 79.5890349,103.761422 79.7376219,105.172704 L79.9199786,106.911939 C80.0843248,108.479425 81.5409273,109.538664 83.0192926,109.162529 C85.4619723,108.540819 88.6505887,108.829137 90.3203159,108.738989 C93.1269587,108.588225 90.92517,104.017101 90.3735971,101.931263 C90.2512755,101.469643 89.9691104,101.075634 89.5796324,100.817625" id="Fill-36" fill="#FFDEC5"></path>
                    </g>
                    <text id="Friulivery" font-family="Pacifico" font-size="14" font-weight="normal" letter-spacing="0.144424" fill="#3C3C3A">
                        <tspan x="17.7097798" y="118.238683">Friulivery</tspan>
                    </text>
                    <text id="Friu" fill="#FFFFFF" fill-rule="evenodd" font-family="Pacifico" font-size="14" font-weight="normal" letter-spacing="0.144424">
                        <tspan x="16.6059425" y="118.238683">Friu</tspan>
                    </text>
                </g>
            </g>
        </g>
    </g>
</svg>